<?xml version="1.0" encoding="UTF-8"?>
<!-- Fincraft favicon SVG
     - Primary blue: #0B5FFF
     - Accent green:  #00C48C
     Compact, simplified mark for legibility at 16x16
-->
<svg xmlns="http://www.w3.org/2000/svg" width="64" height="64" viewBox="0 0 64 64" role="img" aria-labelledby="title">
  <title id="title">Fincraft</title>
  <defs>
    <clipPath id="round">
      <rect width="64" height="64" rx="8" ry="8" />
    </clipPath>
  </defs>
  <g clip-path="url(#round)">
    <!-- background (transparent) -->
    <rect width="64" height="64" fill="transparent" />

    <!-- shield with stylized F -->
    <path d="M32 58c-1.8 0-3.6-.6-5.1-1.7L16.5 49.2C11.6 45.9 9 41 9 34.8V16h46v18.8c0 6.2-2.6 11.1-7.5 14.4L37.1 56.3c-1.6 1.1-3.4 1.7-5.1 1.7z" fill="#0B5FFF" />

    <!-- inner negative-space shield to create the 'cutout' -->
    <path d="M32 50c1.1 0 2.2-.3 3.2-.9l10.3-6.8c3.7-2.4 5.5-5.5 5.5-9.9V18H12v14.4c0 4.4 1.8 7.5 5.5 9.9l10.3 6.8c1 .6 2.1.9 3.2.9z" fill="#FFFFFF" opacity="0.0" />

    <!-- stylized 'F' cut into the shield using a filled shape matching background (we'll draw the F as part of the blue shield appearance)
         To ensure crisp rendering at small sizes, F uses bold rectangular shapes. -->
    <g transform="translate(12,8)">
      <!-- vertical stem of F -->
      <rect x="4" y="4" width="8" height="36" rx="1.5" ry="1.5" fill="#0B5FFF" />
      <!-- top bar -->
      <rect x="14" y="4" width="26" height="8" rx="2" ry="2" fill="#0B5FFF" />
      <!-- mid bar -->
      <rect x="14" y="20" width="18" height="8" rx="2" ry="2" fill="#0B5FFF" />
    </g>

    <!-- green check that overlaps the shield (accent) -->
    <path d="M44.6 25.2c0.9 0.9 0.9 2.3 0 3.2L33.5 39.5c-0.9 0.9-2.3 0.9-3.2 0L26.3 35.5c-0.9-0.9-0.9-2.3 0-3.2 0.9-0.9 2.3-0.9 3.2 0l3 3 11.8-11.1c0.9-0.9 2.3-0.9 3.2 0z" fill="#00C48C" transform="translate(-2,2)" />
  </g>
</svg>
